<?xml version="1.0" standalone="no"?>
<!DOCTYPE svg PUBLIC "-//W3C//DTD SVG 20010904//EN"
 "http://www.w3.org/TR/2001/REC-SVG-20010904/DTD/svg10.dtd">
<svg version="1.0" xmlns="http://www.w3.org/2000/svg"
 width="1024.000000pt" height="1024.000000pt" viewBox="0 0 1024.000000 1024.000000"
 preserveAspectRatio="xMidYMid meet">
<metadata>
Created by potrace 1.14, written by Peter Selinger 2001-2017
</metadata>
<g transform="translate(0.000000,1024.000000) scale(0.100000,-0.100000)"
fill="#000000" stroke="none">
<path d="M4860 8833 c-414 -39 -605 -74 -925 -170 -547 -164 -1126 -494 -1542
-879 -808 -749 -1252 -1840 -1193 -2935 29 -539 123 -934 334 -1407 137 -305
387 -679 655 -977 304 -340 709 -638 1146 -846 463 -219 849 -330 1360 -391
146 -17 616 -17 760 0 492 59 896 179 1350 402 575 282 1006 638 1388 1146
170 227 342 527 451 787 120 286 215 651 262 1007 21 160 30 603 15 770 -40
457 -157 886 -352 1290 -193 399 -412 709 -739 1046 -390 402 -876 713 -1443
926 -336 125 -667 195 -1081 228 -119 9 -364 11 -446 3z m672 -1037 c179 -31
233 -44 413 -102 402 -129 769 -349 1078 -644 438 -418 748 -1013 843 -1620
26 -163 27 -657 2 -811 -27 -163 -36 -206 -68 -324 -133 -500 -390 -938 -766
-1306 -328 -321 -724 -553 -1177 -688 -318 -95 -671 -136 -967 -112 -527 44
-976 194 -1379 461 -311 207 -517 404 -743 715 -270 372 -439 781 -510 1230
-29 187 -31 595 -5 780 71 482 210 850 464 1223 123 181 181 252 327 397 402
401 935 681 1491 785 215 40 337 49 600 45 213 -3 272 -7 397 -29z"/>
<path d="M4825 7309 c-359 -58 -609 -150 -855 -313 -98 -65 -210 -160 -210
-177 0 -8 157 -190 276 -319 28 -30 111 -125 185 -210 74 -85 213 -245 309
-355 96 -110 243 -279 325 -374 83 -96 166 -192 185 -214 l36 -39 160 183 c88
101 234 270 324 374 90 105 296 344 459 533 163 189 311 361 330 383 l35 40
-30 25 c-254 216 -577 378 -879 441 -104 22 -151 25 -355 28 -129 2 -262 -1
-295 -6z"/>
<path d="M6434 5858 c-48 -51 -369 -419 -434 -498 -25 -30 -108 -127 -185
-215 -77 -89 -198 -228 -270 -310 -71 -82 -170 -194 -220 -249 -131 -145 -187
-208 -217 -244 -15 -18 -29 -32 -32 -32 -3 0 -92 100 -199 223 -107 122 -283
323 -392 447 -108 124 -330 379 -493 568 l-297 342 -3 -1192 c-2 -946 0 -1198
10 -1217 20 -37 194 -188 293 -254 246 -162 554 -272 865 -308 128 -14 396 -6
525 16 414 73 772 252 1033 517 l62 64 -2 1192 -3 1193 -41 -43z"/>
</g>
</svg>
